# xmcd
#
# Track frame offsets:
#	150
#	19210
#	36003
#	49395
#	68110
#	82983
#	99360
#	116198
#	134611
#	153236
#
# Disc length: 2268 seconds
#
# Revision: 0
# Processed by: cddbd v1.5.1PL2 Copyright (c) Steve Scherf et al.
# Submitted via: audiograbber 1.83.01
#
DISCID=8208da0a
DTITLE=Paloma San Basilio - Clásicamente tuya
DYEAR=1997
DGENRE=Ballad
TTITLE0=Por ti volaré
TTITLE1=Niña luna
TTITLE2=Pura vida
TTITLE3=A tu lado
TTITLE4=Quédate navidad
TTITLE5=Lengua madre
TTITLE6=Mundo gigante, mundo pequeño
TTITLE7=Agua de mar
TTITLE8=Meditación
TTITLE9=El penúltimo blues
EXTD=
EXTT0=
EXTT1=
EXTT2=
EXTT3=
EXTT4=
EXTT5=
EXTT6=
EXTT7=
EXTT8=
EXTT9=
PLAYORDER=
